<svg width="100%" height="100%" viewBox="0 0 250 250" style="fill-rule:evenodd;clip-rule:evenodd;stroke-miterlimit:10;">
    <path d="M148.333,105.454c0,12.888 -10.445,23.338 -23.333,23.338c-12.883,-0 -23.333,-10.45 -23.333,-23.338c-0,-12.887 10.45,-23.333 23.333,-23.333c12.888,-0 23.333,10.446 23.333,23.333" style="fill:currentColor;fill-rule:nonzero;"/>
    <path d="M178.333,202.121c0,4.583 -3.75,8.333 -8.333,8.333l-90,0c-4.583,0 -8.333,-3.75 -8.333,-8.333l-0,-46.667c-0,-4.583 3.75,-8.333 8.333,-8.333l90,-0c4.583,-0 8.333,3.75 8.333,8.333l0,46.667Z" style="fill:none;fill-rule:nonzero;stroke:currentColor;stroke-width:12.5px;"/>
    <path d="M71.667,170.454l106.666,0" style="fill:none;fill-rule:nonzero;stroke:currentColor;stroke-width:12.5px;"/>
    <path d="M76.667,118.775l-0,-69.229c-0,-18.333 15.004,-33.333 33.333,-33.333l30,-0c18.337,-0 33.333,15 33.333,33.333l0,69.229" style="fill:none;fill-rule:nonzero;stroke:currentColor;stroke-width:12.5px;"/>
    <path d="M88.333,126.288c0,2.291 -1.875,4.166 -4.166,4.166l-15.005,0c-2.287,0 -4.166,-1.875 -4.166,-4.166l-0,-26.663c-0,-2.296 1.879,-4.167 4.166,-4.167l15.005,0c2.291,0 4.166,1.871 4.166,4.167l0,26.663Z" style="fill:currentColor;fill-rule:nonzero;"/>
    <path d="M185,126.288c0,2.291 -1.871,4.166 -4.167,4.166l-15,0c-2.287,0 -4.166,-1.875 -4.166,-4.166l-0,-30c-0,-2.292 1.879,-4.167 4.166,-4.167l15,-0c2.296,-0 4.167,1.875 4.167,4.167l0,30Z" style="fill:currentColor;fill-rule:nonzero;"/>
    <path d="M201.667,208.788c-0,13.754 -11.246,25 -25,25l-103.334,-0c-13.75,-0 -25,-11.246 -25,-25l0,-133.334c0,-13.75 11.25,-25 25,-25l103.334,0c13.754,0 25,11.25 25,25l-0,133.334Z" style="fill:none;fill-rule:nonzero;stroke:currentColor;stroke-width:12.5px;"/>
</svg>